<svg width="1025" height="224" viewBox="0 0 1025 224" fill="none" xmlns="http://www.w3.org/2000/svg">
<path d="M23.27 208.724L86 208.724L86 216.914L23.27 216.914L23.27 208.724ZM61.16 173.831C56.12 173.831 51.71 172.811 47.93 170.771C44.09 168.731 41.12 165.941 39.02 162.401C36.92 158.801 35.87 154.811 35.87 150.431C35.87 146.111 36.8 142.361 38.66 139.181C40.52 136.001 42.86 133.631 45.68 132.071L36.68 132.071L36.68 123.791L86 123.791L86 132.071L76.82 132.071C79.7 133.691 82.1 136.121 84.02 139.361C85.88 142.541 86.81 146.261 86.81 150.521C86.81 154.901 85.73 158.861 83.57 162.401C81.41 165.941 78.38 168.731 74.48 170.771C70.58 172.811 66.14 173.831 61.16 173.831ZM61.25 132.071C57.53 132.071 54.29 132.821 51.53 134.321C48.77 135.821 46.67 137.861 45.23 140.441C43.73 142.961 42.98 145.751 42.98 148.811C42.98 151.871 43.7 154.661 45.14 157.181C46.58 159.701 48.68 161.711 51.44 163.211C54.2 164.711 57.44 165.461 61.16 165.461C64.94 165.461 68.24 164.711 71.06 163.211C73.82 161.711 75.95 159.701 77.45 157.181C78.89 154.661 79.61 151.871 79.61 148.811C79.61 145.751 78.89 142.961 77.45 140.441C75.95 137.861 73.82 135.821 71.06 134.321C68.24 132.821 64.97 132.071 61.25 132.071ZM35.78 50.6409C35.78 46.8009 36.59 43.3809 38.21 40.3809C39.77 37.3809 42.14 35.0109 45.32 33.2709C48.5 31.5309 52.37 30.6609 56.93 30.6609L86 30.6608L86 38.7609L58.1 38.7609C53.18 38.7609 49.43 39.9909 46.85 42.4509C44.21 44.8509 42.89 48.1209 42.89 52.2609C42.89 56.5209 44.27 59.9109 47.03 62.4309C49.73 64.9509 53.66 66.2109 58.82 66.2109L86 66.2109L86 74.3109L58.1 74.3109C53.18 74.3109 49.43 75.5409 46.85 78.0009C44.21 80.4009 42.89 83.6709 42.89 87.8109C42.89 92.0709 44.27 95.4609 47.03 97.9809C49.73 100.501 53.66 101.761 58.82 101.761L86 101.761L86 109.951L36.68 109.951L36.68 101.761L43.79 101.761C41.21 100.141 39.23 97.9809 37.85 95.2809C36.47 92.5209 35.78 89.4909 35.78 86.1909C35.78 82.0509 36.71 78.3909 38.57 75.2109C40.43 72.0309 43.16 69.6609 46.76 68.1009C43.28 66.7209 40.58 64.4409 38.66 61.2609C36.74 58.0809 35.78 54.5409 35.78 50.6409Z" fill="white"/>
<path d="M184.6 32.144C194.072 32.144 202.349 34.0213 209.432 37.776C216.515 41.5307 221.976 46.8213 225.816 53.648C229.741 60.3893 231.704 68.1973 231.704 77.072C231.704 85.8613 229.741 93.6693 225.816 100.496C221.976 107.323 216.472 112.613 209.304 116.368C202.221 120.123 193.987 122 184.6 122H150.936V32.144H184.6ZM183.192 103.056C191.469 103.056 197.912 100.795 202.52 96.272C207.128 91.7493 209.432 85.3493 209.432 77.072C209.432 68.7947 207.128 62.352 202.52 57.744C197.912 53.136 191.469 50.832 183.192 50.832H172.824V103.056H183.192ZM276.448 123.024C269.451 123.024 263.136 121.531 257.504 118.544C251.957 115.557 247.563 111.291 244.32 105.744C241.163 100.197 239.584 93.712 239.584 86.288C239.584 78.9493 241.205 72.5067 244.448 66.96C247.691 61.328 252.128 57.0187 257.76 54.032C263.392 51.0453 269.707 49.552 276.704 49.552C283.701 49.552 290.016 51.0453 295.648 54.032C301.28 57.0187 305.717 61.328 308.96 66.96C312.203 72.5067 313.824 78.9493 313.824 86.288C313.824 93.6267 312.16 100.112 308.832 105.744C305.589 111.291 301.109 115.557 295.392 118.544C289.76 121.531 283.445 123.024 276.448 123.024ZM276.448 104.08C280.629 104.08 284.171 102.544 287.072 99.472C290.059 96.4 291.552 92.0053 291.552 86.288C291.552 80.5707 290.101 76.176 287.2 73.104C284.384 70.032 280.885 68.496 276.704 68.496C272.437 68.496 268.896 70.032 266.08 73.104C263.264 76.0907 261.856 80.4853 261.856 86.288C261.856 92.0053 263.221 96.4 265.952 99.472C268.768 102.544 272.267 104.08 276.448 104.08ZM416.572 49.808C425.447 49.808 432.487 52.496 437.692 57.872C442.983 63.248 445.628 70.7147 445.628 80.272V122H423.868V83.216C423.868 78.608 422.631 75.0667 420.156 72.592C417.767 70.032 414.439 68.752 410.172 68.752C405.905 68.752 402.535 70.032 400.06 72.592C397.671 75.0667 396.476 78.608 396.476 83.216V122H374.716V83.216C374.716 78.608 373.479 75.0667 371.004 72.592C368.615 70.032 365.287 68.752 361.02 68.752C356.753 68.752 353.383 70.032 350.908 72.592C348.519 75.0667 347.324 78.608 347.324 83.216V122H325.436V50.576H347.324V59.536C349.543 56.5493 352.444 54.2027 356.028 52.496C359.612 50.704 363.665 49.808 368.188 49.808C373.564 49.808 378.343 50.96 382.524 53.264C386.791 55.568 390.119 58.8533 392.508 63.12C394.983 59.1947 398.353 55.9947 402.62 53.52C406.887 51.0453 411.537 49.808 416.572 49.808ZM471.944 43.152C468.104 43.152 464.947 42.0427 462.472 39.824C460.083 37.52 458.888 34.704 458.888 31.376C458.888 27.9627 460.083 25.1467 462.472 22.928C464.947 20.624 468.104 19.472 471.944 19.472C475.699 19.472 478.771 20.624 481.16 22.928C483.635 25.1467 484.872 27.9627 484.872 31.376C484.872 34.704 483.635 37.52 481.16 39.824C478.771 42.0427 475.699 43.152 471.944 43.152ZM482.824 50.576V122H460.936V50.576H482.824ZM542.206 49.808C550.569 49.808 557.225 52.5387 562.174 58C567.209 63.376 569.726 70.8 569.726 80.272V122H547.966V83.216C547.966 78.4373 546.729 74.7253 544.254 72.08C541.779 69.4347 538.451 68.112 534.27 68.112C530.089 68.112 526.761 69.4347 524.286 72.08C521.811 74.7253 520.574 78.4373 520.574 83.216V122H498.686V50.576H520.574V60.048C522.793 56.8907 525.779 54.416 529.534 52.624C533.289 50.7467 537.513 49.808 542.206 49.808ZM595.944 43.152C592.104 43.152 588.947 42.0427 586.472 39.824C584.083 37.52 582.888 34.704 582.888 31.376C582.888 27.9627 584.083 25.1467 586.472 22.928C588.947 20.624 592.104 19.472 595.944 19.472C599.699 19.472 602.771 20.624 605.16 22.928C607.635 25.1467 608.872 27.9627 608.872 31.376C608.872 34.704 607.635 37.52 605.16 39.824C602.771 42.0427 599.699 43.152 595.944 43.152ZM606.824 50.576V122H584.936V50.576H606.824ZM666.334 122L644.574 92.048V122H622.686V27.28H644.574V79.632L666.206 50.576H693.214L663.518 86.416L693.47 122H666.334ZM774.76 122L756.072 88.08H750.824V122H728.936V32.144H765.672C772.755 32.144 778.771 33.3813 783.72 35.856C788.755 38.3307 792.509 41.744 794.984 46.096C797.459 50.3627 798.696 55.1413 798.696 60.432C798.696 66.4053 796.989 71.7387 793.576 76.432C790.248 81.1253 785.299 84.4533 778.728 86.416L799.464 122H774.76ZM750.824 72.592H764.392C768.403 72.592 771.389 71.6107 773.352 69.648C775.4 67.6853 776.424 64.912 776.424 61.328C776.424 57.9147 775.4 55.2267 773.352 53.264C771.389 51.3013 768.403 50.32 764.392 50.32H750.824V72.592ZM844.948 123.024C837.951 123.024 831.636 121.531 826.004 118.544C820.457 115.557 816.063 111.291 812.82 105.744C809.663 100.197 808.084 93.712 808.084 86.288C808.084 78.9493 809.705 72.5067 812.948 66.96C816.191 61.328 820.628 57.0187 826.26 54.032C831.892 51.0453 838.207 49.552 845.204 49.552C852.201 49.552 858.516 51.0453 864.148 54.032C869.78 57.0187 874.217 61.328 877.46 66.96C880.703 72.5067 882.324 78.9493 882.324 86.288C882.324 93.6267 880.66 100.112 877.332 105.744C874.089 111.291 869.609 115.557 863.892 118.544C858.26 121.531 851.945 123.024 844.948 123.024ZM844.948 104.08C849.129 104.08 852.671 102.544 855.572 99.472C858.559 96.4 860.052 92.0053 860.052 86.288C860.052 80.5707 858.601 76.176 855.7 73.104C852.884 70.032 849.385 68.496 845.204 68.496C840.937 68.496 837.396 70.032 834.58 73.104C831.764 76.0907 830.356 80.4853 830.356 86.288C830.356 92.0053 831.721 96.4 834.452 99.472C837.268 102.544 840.767 104.08 844.948 104.08ZM933.744 103.44V122H922.608C914.672 122 908.485 120.08 904.048 116.24C899.611 112.315 897.392 105.957 897.392 97.168V68.752H888.688V50.576H897.392V33.168H919.28V50.576H933.616V68.752H919.28V97.424C919.28 99.5573 919.792 101.093 920.816 102.032C921.84 102.971 923.547 103.44 925.936 103.44H933.744ZM989.84 49.808C998.032 49.808 1004.6 52.5387 1009.55 58C1014.5 63.376 1016.98 70.8 1016.98 80.272V122H995.216V83.216C995.216 78.4373 993.979 74.7253 991.504 72.08C989.029 69.4347 985.701 68.112 981.52 68.112C977.339 68.112 974.011 69.4347 971.536 72.08C969.061 74.7253 967.824 78.4373 967.824 83.216V122H945.936V27.28H967.824V60.176C970.043 57.0187 973.072 54.5013 976.912 52.624C980.752 50.7467 985.061 49.808 989.84 49.808Z" fill="white"/>
<path d="M173.144 171.392V176.128H153.752V191.168H169.496V195.904H153.752V216H147.928V171.392H173.144ZM203.666 216L193.042 197.76H186.002V216H180.178V171.392H194.578C197.949 171.392 200.786 171.968 203.09 173.12C205.437 174.272 207.186 175.829 208.338 177.792C209.49 179.755 210.066 181.995 210.066 184.512C210.066 187.584 209.17 190.293 207.378 192.64C205.629 194.987 202.983 196.544 199.442 197.312L210.642 216H203.666ZM186.002 193.088H194.578C197.735 193.088 200.103 192.32 201.682 190.784C203.261 189.205 204.05 187.115 204.05 184.512C204.05 181.867 203.261 179.819 201.682 178.368C200.146 176.917 197.778 176.192 194.578 176.192H186.002V193.088ZM239.34 216.448C235.201 216.448 231.425 215.488 228.012 213.568C224.598 211.605 221.889 208.896 219.884 205.44C217.921 201.941 216.94 198.016 216.94 193.664C216.94 189.312 217.921 185.408 219.884 181.952C221.889 178.453 224.598 175.744 228.012 173.824C231.425 171.861 235.201 170.88 239.34 170.88C243.521 170.88 247.318 171.861 250.732 173.824C254.145 175.744 256.833 178.432 258.796 181.888C260.758 185.344 261.74 189.269 261.74 193.664C261.74 198.059 260.758 201.984 258.796 205.44C256.833 208.896 254.145 211.605 250.732 213.568C247.318 215.488 243.521 216.448 239.34 216.448ZM239.34 211.392C242.454 211.392 245.249 210.667 247.724 209.216C250.241 207.765 252.204 205.696 253.612 203.008C255.062 200.32 255.788 197.205 255.788 193.664C255.788 190.08 255.062 186.965 253.612 184.32C252.204 181.632 250.262 179.563 247.788 178.112C245.313 176.661 242.497 175.936 239.34 175.936C236.182 175.936 233.366 176.661 230.892 178.112C228.417 179.563 226.454 181.632 225.004 184.32C223.596 186.965 222.892 190.08 222.892 193.664C222.892 197.205 223.596 200.32 225.004 203.008C226.454 205.696 228.417 207.765 230.892 209.216C233.409 210.667 236.225 211.392 239.34 211.392ZM304.5 216H298.676L275.252 180.48V216H269.428V171.328H275.252L298.676 206.784V171.328H304.5V216ZM341.884 171.392V176.128H329.724V216H323.9V176.128H311.676V171.392H341.884ZM354.877 176.128V191.04H371.133V195.84H354.877V211.2H373.053V216H349.053V171.328H373.053V176.128H354.877ZM416.938 216H411.114L387.69 180.48V216H381.866V171.328H387.69L411.114 206.784V171.328H416.938V216ZM440.753 171.392C445.618 171.392 449.82 172.309 453.362 174.144C456.946 175.936 459.676 178.517 461.554 181.888C463.474 185.259 464.434 189.227 464.434 193.792C464.434 198.357 463.474 202.325 461.554 205.696C459.676 209.024 456.946 211.584 453.362 213.376C449.82 215.125 445.618 216 440.753 216H426.866V171.392H440.753ZM440.753 211.2C446.514 211.2 450.908 209.685 453.938 206.656C456.967 203.584 458.482 199.296 458.482 193.792C458.482 188.245 456.946 183.915 453.874 180.8C450.844 177.685 446.471 176.128 440.753 176.128H432.69V211.2H440.753ZM503.066 171.392C507.93 171.392 512.133 172.309 515.674 174.144C519.258 175.936 521.989 178.517 523.866 181.888C525.786 185.259 526.746 189.227 526.746 193.792C526.746 198.357 525.786 202.325 523.866 205.696C521.989 209.024 519.258 211.584 515.674 213.376C512.133 215.125 507.93 216 503.066 216H489.178V171.392H503.066ZM503.066 211.2C508.826 211.2 513.221 209.685 516.25 206.656C519.279 203.584 520.794 199.296 520.794 193.792C520.794 188.245 519.258 183.915 516.186 180.8C513.157 177.685 508.783 176.128 503.066 176.128H495.002V211.2H503.066ZM540.252 176.128V191.04H556.508V195.84H540.252V211.2H558.428V216H534.428V171.328H558.428V176.128H540.252ZM604.105 171.392L587.273 216H580.553L563.721 171.392H569.929L583.945 209.856L597.961 171.392H604.105ZM616.315 176.128V191.04H632.571V195.84H616.315V211.2H634.491V216H610.491V171.328H634.491V176.128H616.315ZM649.127 211.264H664.743V216H643.303V171.392H649.127V211.264ZM691.152 216.448C687.013 216.448 683.237 215.488 679.824 213.568C676.411 211.605 673.701 208.896 671.696 205.44C669.733 201.941 668.752 198.016 668.752 193.664C668.752 189.312 669.733 185.408 671.696 181.952C673.701 178.453 676.411 175.744 679.824 173.824C683.237 171.861 687.013 170.88 691.152 170.88C695.333 170.88 699.131 171.861 702.544 173.824C705.957 175.744 708.645 178.432 710.608 181.888C712.571 185.344 713.552 189.269 713.552 193.664C713.552 198.059 712.571 201.984 710.608 205.44C708.645 208.896 705.957 211.605 702.544 213.568C699.131 215.488 695.333 216.448 691.152 216.448ZM691.152 211.392C694.267 211.392 697.061 210.667 699.536 209.216C702.053 207.765 704.016 205.696 705.424 203.008C706.875 200.32 707.6 197.205 707.6 193.664C707.6 190.08 706.875 186.965 705.424 184.32C704.016 181.632 702.075 179.563 699.6 178.112C697.125 176.661 694.309 175.936 691.152 175.936C687.995 175.936 685.179 176.661 682.704 178.112C680.229 179.563 678.267 181.632 676.816 184.32C675.408 186.965 674.704 190.08 674.704 193.664C674.704 197.205 675.408 200.32 676.816 203.008C678.267 205.696 680.229 207.765 682.704 209.216C685.221 210.667 688.037 211.392 691.152 211.392ZM751.065 184.448C751.065 188.16 749.785 191.253 747.225 193.728C744.707 196.16 740.846 197.376 735.641 197.376H727.065V216H721.241V171.392H735.641C740.675 171.392 744.494 172.608 747.097 175.04C749.742 177.472 751.065 180.608 751.065 184.448ZM735.641 192.576C738.883 192.576 741.273 191.872 742.809 190.464C744.345 189.056 745.113 187.051 745.113 184.448C745.113 178.944 741.955 176.192 735.641 176.192H727.065V192.576H735.641ZM764.127 176.128V191.04H780.383V195.84H764.127V211.2H782.303V216H758.303V171.328H782.303V176.128H764.127ZM814.604 216L803.98 197.76H796.94V216H791.116V171.392H805.516C808.886 171.392 811.724 171.968 814.028 173.12C816.374 174.272 818.124 175.829 819.276 177.792C820.428 179.755 821.004 181.995 821.004 184.512C821.004 187.584 820.108 190.293 818.316 192.64C816.566 194.987 813.921 196.544 810.38 197.312L821.58 216H814.604ZM796.94 193.088H805.516C808.673 193.088 811.041 192.32 812.62 190.784C814.198 189.205 814.988 187.115 814.988 184.512C814.988 181.867 814.198 179.819 812.62 178.368C811.084 176.917 808.716 176.192 805.516 176.192H796.94V193.088Z" fill="#9747FF"/>
</svg>
