<svg width="1344" height="610" viewBox="0 0 1344 610" fill="none" xmlns="http://www.w3.org/2000/svg">
<g filter="url(#filter0_d_105160_1923)">
<rect x="637" y="296" width="165" height="58" rx="10" fill="#70E61C" shape-rendering="crispEdges"/>
<path d="M670.864 331.298H676.476V333H668.771V316.969H670.864V331.298ZM690.199 326.215C690.199 326.614 690.176 327.035 690.13 327.48H680.056C680.132 328.722 680.554 329.696 681.321 330.401C682.103 331.091 683.046 331.436 684.15 331.436C685.054 331.436 685.806 331.229 686.404 330.815C687.017 330.386 687.446 329.818 687.692 329.113H689.946C689.608 330.324 688.934 331.313 687.922 332.08C686.91 332.831 685.652 333.207 684.15 333.207C682.954 333.207 681.88 332.939 680.93 332.402C679.994 331.865 679.258 331.106 678.722 330.125C678.185 329.128 677.917 327.978 677.917 326.675C677.917 325.372 678.177 324.229 678.699 323.248C679.22 322.267 679.948 321.515 680.884 320.994C681.834 320.457 682.923 320.189 684.15 320.189C685.346 320.189 686.404 320.45 687.324 320.971C688.244 321.492 688.949 322.213 689.44 323.133C689.946 324.038 690.199 325.065 690.199 326.215ZM688.037 325.778C688.037 324.981 687.86 324.298 687.508 323.731C687.155 323.148 686.672 322.711 686.059 322.42C685.461 322.113 684.794 321.96 684.058 321.96C683 321.96 682.095 322.297 681.344 322.972C680.608 323.647 680.186 324.582 680.079 325.778H688.037ZM695.514 322.121V329.55C695.514 330.163 695.645 330.6 695.905 330.861C696.166 331.106 696.618 331.229 697.262 331.229H698.803V333H696.917C695.752 333 694.878 332.732 694.295 332.195C693.713 331.658 693.421 330.777 693.421 329.55V322.121H691.788V320.396H693.421V317.222H695.514V320.396H698.803V322.121H695.514ZM701.661 316.969H703.984L701.776 322.19H700.304L701.661 316.969ZM710.833 333.207C709.867 333.207 709 333.046 708.234 332.724C707.467 332.387 706.861 331.927 706.417 331.344C705.972 330.746 705.727 330.064 705.681 329.297H707.843C707.904 329.926 708.195 330.439 708.717 330.838C709.253 331.237 709.951 331.436 710.81 331.436C711.607 331.436 712.236 331.26 712.696 330.907C713.156 330.554 713.386 330.11 713.386 329.573C713.386 329.021 713.14 328.615 712.65 328.354C712.159 328.078 711.4 327.81 710.373 327.549C709.437 327.304 708.671 327.058 708.073 326.813C707.49 326.552 706.984 326.177 706.555 325.686C706.141 325.18 705.934 324.521 705.934 323.708C705.934 323.064 706.125 322.474 706.509 321.937C706.892 321.4 707.436 320.979 708.142 320.672C708.847 320.35 709.652 320.189 710.557 320.189C711.952 320.189 713.079 320.542 713.938 321.247C714.796 321.952 715.256 322.918 715.318 324.145H713.225C713.179 323.486 712.91 322.957 712.42 322.558C711.944 322.159 711.3 321.96 710.488 321.96C709.736 321.96 709.138 322.121 708.694 322.443C708.249 322.765 708.027 323.187 708.027 323.708C708.027 324.122 708.157 324.467 708.418 324.743C708.694 325.004 709.031 325.218 709.43 325.387C709.844 325.54 710.411 325.717 711.132 325.916C712.036 326.161 712.772 326.407 713.34 326.652C713.907 326.882 714.39 327.235 714.789 327.71C715.203 328.185 715.417 328.806 715.433 329.573C715.433 330.263 715.241 330.884 714.858 331.436C714.474 331.988 713.93 332.425 713.225 332.747C712.535 333.054 711.737 333.207 710.833 333.207ZM727.072 322.121V329.55C727.072 330.163 727.202 330.6 727.463 330.861C727.724 331.106 728.176 331.229 728.82 331.229H730.361V333H728.475C727.31 333 726.436 332.732 725.853 332.195C725.27 331.658 724.979 330.777 724.979 329.55V322.121H723.346V320.396H724.979V317.222H727.072V320.396H730.361V322.121H727.072ZM732.115 326.652C732.115 325.364 732.376 324.237 732.897 323.271C733.418 322.29 734.131 321.531 735.036 320.994C735.956 320.457 736.976 320.189 738.095 320.189C739.199 320.189 740.157 320.427 740.97 320.902C741.783 321.377 742.388 321.975 742.787 322.696V320.396H744.903V333H742.787V330.654C742.373 331.39 741.752 332.003 740.924 332.494C740.111 332.969 739.161 333.207 738.072 333.207C736.953 333.207 735.941 332.931 735.036 332.379C734.131 331.827 733.418 331.053 732.897 330.056C732.376 329.059 732.115 327.925 732.115 326.652ZM742.787 326.675C742.787 325.724 742.595 324.896 742.212 324.191C741.829 323.486 741.307 322.949 740.648 322.581C740.004 322.198 739.291 322.006 738.509 322.006C737.727 322.006 737.014 322.19 736.37 322.558C735.726 322.926 735.212 323.463 734.829 324.168C734.446 324.873 734.254 325.701 734.254 326.652C734.254 327.618 734.446 328.461 734.829 329.182C735.212 329.887 735.726 330.432 736.37 330.815C737.014 331.183 737.727 331.367 738.509 331.367C739.291 331.367 740.004 331.183 740.648 330.815C741.307 330.432 741.829 329.887 742.212 329.182C742.595 328.461 742.787 327.626 742.787 326.675ZM750.533 315.98V333H748.44V315.98H750.533ZM761.138 333L756.193 327.434V333H754.1V315.98H756.193V325.985L761.046 320.396H763.967L758.033 326.675L763.99 333H761.138ZM768.651 316.969L768.398 328.469H766.65L766.397 316.969H768.651ZM767.616 333.138C767.217 333.138 766.88 333 766.604 332.724C766.328 332.448 766.19 332.111 766.19 331.712C766.19 331.313 766.328 330.976 766.604 330.7C766.88 330.424 767.217 330.286 767.616 330.286C767.999 330.286 768.321 330.424 768.582 330.7C768.858 330.976 768.996 331.313 768.996 331.712C768.996 332.111 768.858 332.448 768.582 332.724C768.321 333 767.999 333.138 767.616 333.138Z" fill="white"/>
</g>
<path d="M0 588H-2V592H0V588ZM100 592C101.105 592 102 591.105 102 590C102 588.895 101.105 588 100 588V592ZM0 592H100V588H0V592Z" fill="#70E61C"/>
<path d="M157 575.37C148.713 575.37 142 582.083 142 590.37C141.998 593.519 142.988 596.589 144.829 599.143C146.67 601.698 149.269 603.608 152.257 604.602C153.007 604.733 153.288 604.283 153.288 603.888C153.288 603.533 153.268 602.352 153.268 601.095C149.5 601.79 148.525 600.177 148.225 599.333C148.056 598.901 147.325 597.57 146.688 597.213C146.163 596.933 145.413 596.238 146.668 596.22C147.85 596.201 148.693 597.308 148.975 597.758C150.325 600.026 152.482 599.388 153.343 598.995C153.475 598.02 153.868 597.365 154.3 596.99C150.963 596.615 147.475 595.32 147.475 589.583C147.475 587.951 148.056 586.602 149.013 585.551C148.863 585.176 148.338 583.638 149.163 581.576C149.163 581.576 150.418 581.183 153.288 583.115C154.509 582.776 155.77 582.605 157.038 582.608C158.313 582.608 159.587 582.776 160.788 583.113C163.656 581.163 164.913 581.577 164.913 581.577C165.738 583.64 165.213 585.177 165.063 585.552C166.018 586.602 166.6 587.933 166.6 589.583C166.6 595.34 163.095 596.615 159.757 596.99C160.3 597.458 160.77 598.358 160.77 599.765C160.77 601.77 160.75 603.383 160.75 603.89C160.75 604.283 161.032 604.751 161.782 604.601C164.76 603.596 167.347 601.682 169.18 599.129C171.013 596.576 171.999 593.513 172 590.37C172 582.083 165.288 575.37 157 575.37Z" fill="white"/>
<path d="M229 575C220.7 575 214 581.7 214 590C214 598.3 220.7 605 229 605C237.3 605 244 598.3 244 590C244 581.7 237.3 575 229 575ZM238 595.6C238 596.1 237.6 596.5 237.1 596.5H221C220.4 596.5 220 596 220 595.5V585.8L229 590.5L238 585.8V595.6ZM238 584.7L229 589.4L220 584.7V584.5C220 584 220.4 583.5 221 583.5H237C237.6 583.5 238 584 238 584.5V584.7Z" fill="white"/>
<g clip-path="url(#clip0_105160_1923)">
<path d="M301 575C292.7 575 286 581.7 286 590C286 598.3 292.7 605 301 605C309.3 605 316 598.3 316 590C316 581.7 309.3 575 301 575ZM292.7 580.5C293.1 580.2 293.6 580 294 580C294.4 580 295 580.2 295.3 580.5C295.6 580.9 295.8 581.3 295.8 581.8C295.8 582.3 295.6 582.8 295.2 583.1C295 583.5 294.5 583.7 294 583.7C293.5 583.7 293 583.5 292.7 583.2C292.4 582.8 292.2 582.3 292.2 581.8C292.2 581.3 292.4 580.9 292.7 580.5ZM295.9 596.6H292.2V585.1H295.9V596.6ZM309.8 596.6H306.1V590.5C306.1 586.8 301.7 587.1 301.7 590.5V596.6H298.1V585.1H301.8V586.6C303.3 583.8 309.9 583.6 309.9 589.3V596.6H309.8Z" fill="white"/>
</g>
<path d="M1321.84 456.854C1321.84 455.796 1322.02 454.845 1322.39 454.002C1322.77 453.174 1323.3 452.522 1323.95 452.047C1324.63 451.572 1325.4 451.326 1326.28 451.311L1326.28 453.542C1325.53 453.619 1324.89 453.925 1324.37 454.462C1323.86 455.014 1323.61 455.811 1323.61 456.854C1323.61 457.851 1323.86 458.633 1324.35 459.2C1324.85 459.783 1325.5 460.074 1326.28 460.074C1326.89 460.074 1327.39 459.905 1327.77 459.568C1328.16 459.231 1328.45 458.809 1328.65 458.303C1328.85 457.797 1329.06 457.115 1329.29 456.256C1329.57 455.198 1329.84 454.347 1330.12 453.703C1330.4 453.074 1330.82 452.53 1331.41 452.07C1332.01 451.625 1332.8 451.403 1333.8 451.403C1334.67 451.403 1335.45 451.625 1336.12 452.07C1336.8 452.515 1337.32 453.136 1337.69 453.933C1338.05 454.746 1338.24 455.673 1338.24 456.716C1338.24 458.219 1337.86 459.445 1337.11 460.396C1336.36 461.362 1335.36 461.906 1334.12 462.029L1334.12 459.729C1334.73 459.652 1335.27 459.33 1335.73 458.763C1336.21 458.196 1336.44 457.444 1336.44 456.509C1336.44 455.635 1336.21 454.922 1335.75 454.37C1335.31 453.818 1334.68 453.542 1333.87 453.542C1333.29 453.542 1332.81 453.703 1332.44 454.025C1332.07 454.362 1331.79 454.769 1331.59 455.244C1331.41 455.735 1331.19 456.417 1330.95 457.291C1330.66 458.349 1330.36 459.2 1330.07 459.844C1329.8 460.488 1329.36 461.04 1328.76 461.5C1328.18 461.96 1327.38 462.19 1326.37 462.19C1325.59 462.19 1324.85 461.983 1324.16 461.569C1323.47 461.155 1322.91 460.542 1322.48 459.729C1322.05 458.916 1321.84 457.958 1321.84 456.854ZM1328.32 464.488C1329.63 464.488 1330.76 464.749 1331.73 465.27C1332.71 465.791 1333.47 466.512 1334.01 467.432C1334.54 468.367 1334.81 469.433 1334.81 470.629C1334.81 472.178 1334.44 473.45 1333.68 474.447C1332.93 475.459 1331.89 476.126 1330.56 476.448L1330.56 474.194C1331.32 473.979 1331.93 473.558 1332.37 472.929C1332.82 472.316 1333.04 471.549 1333.04 470.629C1333.04 469.433 1332.63 468.467 1331.8 467.731C1330.99 466.995 1329.83 466.627 1328.32 466.627C1326.81 466.627 1325.63 466.995 1324.81 467.731C1323.98 468.467 1323.56 469.433 1323.56 470.629C1323.56 471.549 1323.78 472.316 1324.21 472.929C1324.64 473.542 1325.25 473.964 1326.05 474.194L1326.05 476.448C1324.76 476.111 1323.72 475.436 1322.94 474.424C1322.18 473.412 1321.79 472.147 1321.79 470.629C1321.79 469.433 1322.06 468.367 1322.6 467.432C1323.13 466.512 1323.89 465.791 1324.87 465.27C1325.86 464.749 1327.01 464.488 1328.32 464.488ZM1332.56 481.334C1333.28 481.702 1333.84 482.223 1334.24 482.898C1334.63 483.588 1334.83 484.423 1334.83 485.405L1332.67 485.405L1332.67 484.853C1332.67 482.507 1331.4 481.334 1328.85 481.334L1322 481.334L1322 479.241L1334.6 479.241L1334.6 481.334L1332.56 481.334ZM1321.79 493.318C1321.79 492.137 1322.06 491.064 1322.6 490.098C1323.13 489.147 1323.89 488.396 1324.87 487.844C1325.87 487.307 1327.02 487.039 1328.32 487.039C1329.61 487.039 1330.75 487.315 1331.73 487.867C1332.73 488.434 1333.48 489.201 1334.01 490.167C1334.54 491.133 1334.81 492.214 1334.81 493.41C1334.81 494.606 1334.54 495.687 1334.01 496.653C1333.48 497.619 1332.73 498.378 1331.75 498.93C1330.77 499.497 1329.63 499.781 1328.32 499.781C1327.02 499.781 1325.87 499.489 1324.87 498.907C1323.89 498.339 1323.13 497.565 1322.6 496.584C1322.06 495.602 1321.79 494.514 1321.79 493.318ZM1323.63 493.318C1323.63 494.069 1323.81 494.774 1324.16 495.434C1324.51 496.093 1325.04 496.622 1325.75 497.021C1326.45 497.435 1327.31 497.642 1328.32 497.642C1329.34 497.642 1330.2 497.442 1330.9 497.044C1331.61 496.645 1332.13 496.124 1332.46 495.48C1332.82 494.836 1332.99 494.138 1332.99 493.387C1332.99 492.62 1332.82 491.915 1332.46 491.271C1332.13 490.642 1331.61 490.136 1330.9 489.753C1330.2 489.369 1329.34 489.178 1328.32 489.178C1327.3 489.178 1326.43 489.362 1325.73 489.73C1325.02 490.113 1324.49 490.619 1324.14 491.248C1323.8 491.876 1323.63 492.566 1323.63 493.318ZM1339.02 504.626L1322 504.626L1322 502.533L1339.02 502.533L1339.02 504.626ZM1339.02 510.286L1322 510.286L1322 508.193L1339.02 508.193L1339.02 510.286ZM1328.35 519.203C1329.64 519.203 1330.76 519.464 1331.73 519.985C1332.71 520.506 1333.47 521.219 1334.01 522.124C1334.54 523.044 1334.81 524.071 1334.81 525.206C1334.81 526.187 1334.58 527.1 1334.12 527.943C1333.68 528.786 1333.09 529.43 1332.35 529.875L1339.02 529.875L1339.02 531.991L1322 531.991L1322 529.875L1324.37 529.875C1323.62 529.461 1323 528.848 1322.51 528.035C1322.03 527.222 1321.79 526.272 1321.79 525.183C1321.79 524.064 1322.07 523.044 1322.62 522.124C1323.17 521.219 1323.95 520.506 1324.94 519.985C1325.94 519.464 1327.08 519.203 1328.35 519.203ZM1328.32 529.875C1329.28 529.875 1330.1 529.683 1330.81 529.3C1331.51 528.917 1332.05 528.395 1332.42 527.736C1332.8 527.092 1332.99 526.379 1332.99 525.597C1332.99 524.815 1332.81 524.102 1332.44 523.458C1332.07 522.814 1331.54 522.3 1330.83 521.917C1330.13 521.534 1329.3 521.342 1328.35 521.342C1327.38 521.342 1326.54 521.534 1325.82 521.917C1325.11 522.3 1324.57 522.814 1324.18 523.458C1323.82 524.102 1323.63 524.815 1323.63 525.597C1323.63 526.379 1323.82 527.092 1324.18 527.736C1324.57 528.395 1325.11 528.917 1325.82 529.3C1326.54 529.683 1327.37 529.875 1328.32 529.875ZM1321.79 541.025C1321.79 539.844 1322.06 538.771 1322.6 537.805C1323.13 536.854 1323.89 536.103 1324.87 535.551C1325.87 535.014 1327.02 534.746 1328.32 534.746C1329.61 534.746 1330.75 535.022 1331.73 535.574C1332.73 536.141 1333.48 536.908 1334.01 537.874C1334.54 538.84 1334.81 539.921 1334.81 541.117C1334.81 542.313 1334.54 543.394 1334.01 544.36C1333.48 545.326 1332.73 546.085 1331.75 546.637C1330.77 547.204 1329.63 547.488 1328.32 547.488C1327.02 547.488 1325.87 547.197 1324.87 546.614C1323.89 546.047 1323.13 545.272 1322.6 544.291C1322.06 543.31 1321.79 542.221 1321.79 541.025ZM1323.63 541.025C1323.63 541.776 1323.81 542.482 1324.16 543.141C1324.51 543.8 1325.04 544.329 1325.75 544.728C1326.45 545.142 1327.31 545.349 1328.32 545.349C1329.34 545.349 1330.2 545.15 1330.9 544.751C1331.61 544.352 1332.13 543.831 1332.46 543.187C1332.82 542.543 1332.99 541.845 1332.99 541.094C1332.99 540.327 1332.82 539.622 1332.46 538.978C1332.13 538.349 1331.61 537.843 1330.9 537.46C1330.2 537.077 1329.34 536.885 1328.32 536.885C1327.3 536.885 1326.43 537.069 1325.73 537.437C1325.02 537.82 1324.49 538.326 1324.14 538.955C1323.8 539.584 1323.63 540.274 1323.63 541.025ZM1334.6 567.03L1322 563.097L1322 560.935L1332 557.899L1322 554.863L1322 552.701L1334.6 548.745L1334.6 550.884L1324.02 553.782L1334.6 556.91L1334.6 559.049L1324 562.108L1334.6 564.96L1334.6 567.03ZM1334.83 575.248C1334.83 576.781 1334.37 578.023 1333.43 578.974C1332.51 579.925 1331.18 580.4 1329.43 580.4L1322 580.4L1322 578.33L1329.13 578.33C1330.39 578.33 1331.35 578.016 1332 577.387C1332.68 576.758 1333.02 575.9 1333.02 574.811C1333.02 573.707 1332.67 572.825 1331.98 572.166C1331.29 571.522 1330.29 571.2 1328.97 571.2L1322 571.2L1322 569.107L1334.6 569.107L1334.6 571.2L1332.81 571.2C1333.45 571.614 1333.95 572.174 1334.3 572.879C1334.66 573.6 1334.83 574.389 1334.83 575.248Z" fill="white"/>
<path d="M1329 602.172L1333.66 597.515C1334.05 597.125 1334.68 597.125 1335.07 597.515C1335.46 597.905 1335.46 598.539 1335.07 598.929L1328.71 605.293C1328.32 605.683 1327.68 605.683 1327.29 605.293L1320.93 598.929C1320.54 598.539 1320.54 597.905 1320.93 597.515C1321.32 597.125 1321.95 597.125 1322.34 597.515L1327 602.172V591C1327 590.448 1327.45 590 1328 590C1328.55 590 1329 590.448 1329 591V602.172Z" fill="white"/>
<path d="M230.27 208.724L293 208.724L293 216.914L230.27 216.914L230.27 208.724ZM268.16 173.831C263.12 173.831 258.71 172.811 254.93 170.771C251.09 168.731 248.12 165.941 246.02 162.401C243.92 158.801 242.87 154.811 242.87 150.431C242.87 146.111 243.8 142.361 245.66 139.181C247.52 136.001 249.86 133.631 252.68 132.071L243.68 132.071L243.68 123.791L293 123.791L293 132.071L283.82 132.071C286.7 133.691 289.1 136.121 291.02 139.361C292.88 142.541 293.81 146.261 293.81 150.521C293.81 154.901 292.73 158.861 290.57 162.401C288.41 165.941 285.38 168.731 281.48 170.771C277.58 172.811 273.14 173.831 268.16 173.831ZM268.25 132.071C264.53 132.071 261.29 132.821 258.53 134.321C255.77 135.821 253.67 137.861 252.23 140.441C250.73 142.961 249.98 145.751 249.98 148.811C249.98 151.871 250.7 154.661 252.14 157.181C253.58 159.701 255.68 161.711 258.44 163.211C261.2 164.711 264.44 165.461 268.16 165.461C271.94 165.461 275.24 164.711 278.06 163.211C280.82 161.711 282.95 159.701 284.45 157.181C285.89 154.661 286.61 151.871 286.61 148.811C286.61 145.751 285.89 142.961 284.45 140.441C282.95 137.861 280.82 135.821 278.06 134.321C275.24 132.821 271.97 132.071 268.25 132.071ZM242.78 50.6409C242.78 46.8009 243.59 43.3809 245.21 40.3809C246.77 37.3809 249.14 35.0109 252.32 33.2709C255.5 31.5309 259.37 30.6609 263.93 30.6609L293 30.6608L293 38.7609L265.1 38.7609C260.18 38.7609 256.43 39.9909 253.85 42.4509C251.21 44.8509 249.89 48.1209 249.89 52.2609C249.89 56.5209 251.27 59.9109 254.03 62.4309C256.73 64.9509 260.66 66.2109 265.82 66.2109L293 66.2109L293 74.3109L265.1 74.3109C260.18 74.3109 256.43 75.5409 253.85 78.0009C251.21 80.4009 249.89 83.6709 249.89 87.8109C249.89 92.0709 251.27 95.4609 254.03 97.9809C256.73 100.501 260.66 101.761 265.82 101.761L293 101.761L293 109.951L243.68 109.951L243.68 101.761L250.79 101.761C248.21 100.141 246.23 97.9809 244.85 95.2809C243.47 92.5209 242.78 89.4909 242.78 86.1909C242.78 82.0509 243.71 78.3909 245.57 75.2109C247.43 72.0309 250.16 69.6609 253.76 68.1009C250.28 66.7209 247.58 64.4409 245.66 61.2609C243.74 58.0809 242.78 54.5409 242.78 50.6409Z" fill="white"/>
<path d="M391.6 32.144C401.072 32.144 409.349 34.0213 416.432 37.776C423.515 41.5307 428.976 46.8213 432.816 53.648C436.741 60.3893 438.704 68.1973 438.704 77.072C438.704 85.8613 436.741 93.6693 432.816 100.496C428.976 107.323 423.472 112.613 416.304 116.368C409.221 120.123 400.987 122 391.6 122H357.936V32.144H391.6ZM390.192 103.056C398.469 103.056 404.912 100.795 409.52 96.272C414.128 91.7493 416.432 85.3493 416.432 77.072C416.432 68.7947 414.128 62.352 409.52 57.744C404.912 53.136 398.469 50.832 390.192 50.832H379.824V103.056H390.192ZM483.448 123.024C476.451 123.024 470.136 121.531 464.504 118.544C458.957 115.557 454.563 111.291 451.32 105.744C448.163 100.197 446.584 93.712 446.584 86.288C446.584 78.9493 448.205 72.5067 451.448 66.96C454.691 61.328 459.128 57.0187 464.76 54.032C470.392 51.0453 476.707 49.552 483.704 49.552C490.701 49.552 497.016 51.0453 502.648 54.032C508.28 57.0187 512.717 61.328 515.96 66.96C519.203 72.5067 520.824 78.9493 520.824 86.288C520.824 93.6267 519.16 100.112 515.832 105.744C512.589 111.291 508.109 115.557 502.392 118.544C496.76 121.531 490.445 123.024 483.448 123.024ZM483.448 104.08C487.629 104.08 491.171 102.544 494.072 99.472C497.059 96.4 498.552 92.0053 498.552 86.288C498.552 80.5707 497.101 76.176 494.2 73.104C491.384 70.032 487.885 68.496 483.704 68.496C479.437 68.496 475.896 70.032 473.08 73.104C470.264 76.0907 468.856 80.4853 468.856 86.288C468.856 92.0053 470.221 96.4 472.952 99.472C475.768 102.544 479.267 104.08 483.448 104.08ZM623.572 49.808C632.447 49.808 639.487 52.496 644.692 57.872C649.983 63.248 652.628 70.7147 652.628 80.272V122H630.868V83.216C630.868 78.608 629.631 75.0667 627.156 72.592C624.767 70.032 621.439 68.752 617.172 68.752C612.905 68.752 609.535 70.032 607.06 72.592C604.671 75.0667 603.476 78.608 603.476 83.216V122H581.716V83.216C581.716 78.608 580.479 75.0667 578.004 72.592C575.615 70.032 572.287 68.752 568.02 68.752C563.753 68.752 560.383 70.032 557.908 72.592C555.519 75.0667 554.324 78.608 554.324 83.216V122H532.436V50.576H554.324V59.536C556.543 56.5493 559.444 54.2027 563.028 52.496C566.612 50.704 570.665 49.808 575.188 49.808C580.564 49.808 585.343 50.96 589.524 53.264C593.791 55.568 597.119 58.8533 599.508 63.12C601.983 59.1947 605.353 55.9947 609.62 53.52C613.887 51.0453 618.537 49.808 623.572 49.808ZM678.944 43.152C675.104 43.152 671.947 42.0427 669.472 39.824C667.083 37.52 665.888 34.704 665.888 31.376C665.888 27.9627 667.083 25.1467 669.472 22.928C671.947 20.624 675.104 19.472 678.944 19.472C682.699 19.472 685.771 20.624 688.16 22.928C690.635 25.1467 691.872 27.9627 691.872 31.376C691.872 34.704 690.635 37.52 688.16 39.824C685.771 42.0427 682.699 43.152 678.944 43.152ZM689.824 50.576V122H667.936V50.576H689.824ZM749.206 49.808C757.569 49.808 764.225 52.5387 769.174 58C774.209 63.376 776.726 70.8 776.726 80.272V122H754.966V83.216C754.966 78.4373 753.729 74.7253 751.254 72.08C748.779 69.4347 745.451 68.112 741.27 68.112C737.089 68.112 733.761 69.4347 731.286 72.08C728.811 74.7253 727.574 78.4373 727.574 83.216V122H705.686V50.576H727.574V60.048C729.793 56.8907 732.779 54.416 736.534 52.624C740.289 50.7467 744.513 49.808 749.206 49.808ZM802.944 43.152C799.104 43.152 795.947 42.0427 793.472 39.824C791.083 37.52 789.888 34.704 789.888 31.376C789.888 27.9627 791.083 25.1467 793.472 22.928C795.947 20.624 799.104 19.472 802.944 19.472C806.699 19.472 809.771 20.624 812.16 22.928C814.635 25.1467 815.872 27.9627 815.872 31.376C815.872 34.704 814.635 37.52 812.16 39.824C809.771 42.0427 806.699 43.152 802.944 43.152ZM813.824 50.576V122H791.936V50.576H813.824ZM873.334 122L851.574 92.048V122H829.686V27.28H851.574V79.632L873.206 50.576H900.214L870.518 86.416L900.47 122H873.334ZM981.76 122L963.072 88.08H957.824V122H935.936V32.144H972.672C979.755 32.144 985.771 33.3813 990.72 35.856C995.755 38.3307 999.509 41.744 1001.98 46.096C1004.46 50.3627 1005.7 55.1413 1005.7 60.432C1005.7 66.4053 1003.99 71.7387 1000.58 76.432C997.248 81.1253 992.299 84.4533 985.728 86.416L1006.46 122H981.76ZM957.824 72.592H971.392C975.403 72.592 978.389 71.6107 980.352 69.648C982.4 67.6853 983.424 64.912 983.424 61.328C983.424 57.9147 982.4 55.2267 980.352 53.264C978.389 51.3013 975.403 50.32 971.392 50.32H957.824V72.592ZM1051.95 123.024C1044.95 123.024 1038.64 121.531 1033 118.544C1027.46 115.557 1023.06 111.291 1019.82 105.744C1016.66 100.197 1015.08 93.712 1015.08 86.288C1015.08 78.9493 1016.71 72.5067 1019.95 66.96C1023.19 61.328 1027.63 57.0187 1033.26 54.032C1038.89 51.0453 1045.21 49.552 1052.2 49.552C1059.2 49.552 1065.52 51.0453 1071.15 54.032C1076.78 57.0187 1081.22 61.328 1084.46 66.96C1087.7 72.5067 1089.32 78.9493 1089.32 86.288C1089.32 93.6267 1087.66 100.112 1084.33 105.744C1081.09 111.291 1076.61 115.557 1070.89 118.544C1065.26 121.531 1058.95 123.024 1051.95 123.024ZM1051.95 104.08C1056.13 104.08 1059.67 102.544 1062.57 99.472C1065.56 96.4 1067.05 92.0053 1067.05 86.288C1067.05 80.5707 1065.6 76.176 1062.7 73.104C1059.88 70.032 1056.39 68.496 1052.2 68.496C1047.94 68.496 1044.4 70.032 1041.58 73.104C1038.76 76.0907 1037.36 80.4853 1037.36 86.288C1037.36 92.0053 1038.72 96.4 1041.45 99.472C1044.27 102.544 1047.77 104.08 1051.95 104.08ZM1140.74 103.44V122H1129.61C1121.67 122 1115.49 120.08 1111.05 116.24C1106.61 112.315 1104.39 105.957 1104.39 97.168V68.752H1095.69V50.576H1104.39V33.168H1126.28V50.576H1140.62V68.752H1126.28V97.424C1126.28 99.5573 1126.79 101.093 1127.82 102.032C1128.84 102.971 1130.55 103.44 1132.94 103.44H1140.74ZM1196.84 49.808C1205.03 49.808 1211.6 52.5387 1216.55 58C1221.5 63.376 1223.98 70.8 1223.98 80.272V122H1202.22V83.216C1202.22 78.4373 1200.98 74.7253 1198.5 72.08C1196.03 69.4347 1192.7 68.112 1188.52 68.112C1184.34 68.112 1181.01 69.4347 1178.54 72.08C1176.06 74.7253 1174.82 78.4373 1174.82 83.216V122H1152.94V27.28H1174.82V60.176C1177.04 57.0187 1180.07 54.5013 1183.91 52.624C1187.75 50.7467 1192.06 49.808 1196.84 49.808Z" fill="white"/>
<path d="M380.144 171.392V176.128H360.752V191.168H376.496V195.904H360.752V216H354.928V171.392H380.144ZM410.666 216L400.042 197.76H393.002V216H387.178V171.392H401.578C404.949 171.392 407.786 171.968 410.09 173.12C412.437 174.272 414.186 175.829 415.338 177.792C416.49 179.755 417.066 181.995 417.066 184.512C417.066 187.584 416.17 190.293 414.378 192.64C412.629 194.987 409.983 196.544 406.442 197.312L417.642 216H410.666ZM393.002 193.088H401.578C404.735 193.088 407.103 192.32 408.682 190.784C410.261 189.205 411.05 187.115 411.05 184.512C411.05 181.867 410.261 179.819 408.682 178.368C407.146 176.917 404.778 176.192 401.578 176.192H393.002V193.088ZM446.34 216.448C442.201 216.448 438.425 215.488 435.012 213.568C431.598 211.605 428.889 208.896 426.884 205.44C424.921 201.941 423.94 198.016 423.94 193.664C423.94 189.312 424.921 185.408 426.884 181.952C428.889 178.453 431.598 175.744 435.012 173.824C438.425 171.861 442.201 170.88 446.34 170.88C450.521 170.88 454.318 171.861 457.732 173.824C461.145 175.744 463.833 178.432 465.796 181.888C467.758 185.344 468.74 189.269 468.74 193.664C468.74 198.059 467.758 201.984 465.796 205.44C463.833 208.896 461.145 211.605 457.732 213.568C454.318 215.488 450.521 216.448 446.34 216.448ZM446.34 211.392C449.454 211.392 452.249 210.667 454.724 209.216C457.241 207.765 459.204 205.696 460.612 203.008C462.062 200.32 462.788 197.205 462.788 193.664C462.788 190.08 462.062 186.965 460.612 184.32C459.204 181.632 457.262 179.563 454.788 178.112C452.313 176.661 449.497 175.936 446.34 175.936C443.182 175.936 440.366 176.661 437.892 178.112C435.417 179.563 433.454 181.632 432.004 184.32C430.596 186.965 429.892 190.08 429.892 193.664C429.892 197.205 430.596 200.32 432.004 203.008C433.454 205.696 435.417 207.765 437.892 209.216C440.409 210.667 443.225 211.392 446.34 211.392ZM511.5 216H505.676L482.252 180.48V216H476.428V171.328H482.252L505.676 206.784V171.328H511.5V216ZM548.884 171.392V176.128H536.724V216H530.9V176.128H518.676V171.392H548.884ZM561.877 176.128V191.04H578.133V195.84H561.877V211.2H580.053V216H556.053V171.328H580.053V176.128H561.877ZM623.938 216H618.114L594.69 180.48V216H588.866V171.328H594.69L618.114 206.784V171.328H623.938V216ZM647.753 171.392C652.618 171.392 656.82 172.309 660.362 174.144C663.946 175.936 666.676 178.517 668.554 181.888C670.474 185.259 671.434 189.227 671.434 193.792C671.434 198.357 670.474 202.325 668.554 205.696C666.676 209.024 663.946 211.584 660.362 213.376C656.82 215.125 652.618 216 647.753 216H633.866V171.392H647.753ZM647.753 211.2C653.514 211.2 657.908 209.685 660.938 206.656C663.967 203.584 665.482 199.296 665.482 193.792C665.482 188.245 663.946 183.915 660.874 180.8C657.844 177.685 653.471 176.128 647.753 176.128H639.69V211.2H647.753ZM710.066 171.392C714.93 171.392 719.133 172.309 722.674 174.144C726.258 175.936 728.989 178.517 730.866 181.888C732.786 185.259 733.746 189.227 733.746 193.792C733.746 198.357 732.786 202.325 730.866 205.696C728.989 209.024 726.258 211.584 722.674 213.376C719.133 215.125 714.93 216 710.066 216H696.178V171.392H710.066ZM710.066 211.2C715.826 211.2 720.221 209.685 723.25 206.656C726.279 203.584 727.794 199.296 727.794 193.792C727.794 188.245 726.258 183.915 723.186 180.8C720.157 177.685 715.783 176.128 710.066 176.128H702.002V211.2H710.066ZM747.252 176.128V191.04H763.508V195.84H747.252V211.2H765.428V216H741.428V171.328H765.428V176.128H747.252ZM811.105 171.392L794.273 216H787.553L770.721 171.392H776.929L790.945 209.856L804.961 171.392H811.105ZM823.315 176.128V191.04H839.571V195.84H823.315V211.2H841.491V216H817.491V171.328H841.491V176.128H823.315ZM856.127 211.264H871.743V216H850.303V171.392H856.127V211.264ZM898.152 216.448C894.013 216.448 890.237 215.488 886.824 213.568C883.411 211.605 880.701 208.896 878.696 205.44C876.733 201.941 875.752 198.016 875.752 193.664C875.752 189.312 876.733 185.408 878.696 181.952C880.701 178.453 883.411 175.744 886.824 173.824C890.237 171.861 894.013 170.88 898.152 170.88C902.333 170.88 906.131 171.861 909.544 173.824C912.957 175.744 915.645 178.432 917.608 181.888C919.571 185.344 920.552 189.269 920.552 193.664C920.552 198.059 919.571 201.984 917.608 205.44C915.645 208.896 912.957 211.605 909.544 213.568C906.131 215.488 902.333 216.448 898.152 216.448ZM898.152 211.392C901.267 211.392 904.061 210.667 906.536 209.216C909.053 207.765 911.016 205.696 912.424 203.008C913.875 200.32 914.6 197.205 914.6 193.664C914.6 190.08 913.875 186.965 912.424 184.32C911.016 181.632 909.075 179.563 906.6 178.112C904.125 176.661 901.309 175.936 898.152 175.936C894.995 175.936 892.179 176.661 889.704 178.112C887.229 179.563 885.267 181.632 883.816 184.32C882.408 186.965 881.704 190.08 881.704 193.664C881.704 197.205 882.408 200.32 883.816 203.008C885.267 205.696 887.229 207.765 889.704 209.216C892.221 210.667 895.037 211.392 898.152 211.392ZM958.065 184.448C958.065 188.16 956.785 191.253 954.225 193.728C951.707 196.16 947.846 197.376 942.641 197.376H934.065V216H928.241V171.392H942.641C947.675 171.392 951.494 172.608 954.097 175.04C956.742 177.472 958.065 180.608 958.065 184.448ZM942.641 192.576C945.883 192.576 948.273 191.872 949.809 190.464C951.345 189.056 952.113 187.051 952.113 184.448C952.113 178.944 948.955 176.192 942.641 176.192H934.065V192.576H942.641ZM971.127 176.128V191.04H987.383V195.84H971.127V211.2H989.303V216H965.303V171.328H989.303V176.128H971.127ZM1021.6 216L1010.98 197.76H1003.94V216H998.116V171.392H1012.52C1015.89 171.392 1018.72 171.968 1021.03 173.12C1023.37 174.272 1025.12 175.829 1026.28 177.792C1027.43 179.755 1028 181.995 1028 184.512C1028 187.584 1027.11 190.293 1025.32 192.64C1023.57 194.987 1020.92 196.544 1017.38 197.312L1028.58 216H1021.6ZM1003.94 193.088H1012.52C1015.67 193.088 1018.04 192.32 1019.62 190.784C1021.2 189.205 1021.99 187.115 1021.99 184.512C1021.99 181.867 1021.2 179.819 1019.62 178.368C1018.08 176.917 1015.72 176.192 1012.52 176.192H1003.94V193.088Z" fill="#9747FF"/>
<defs>
<filter id="filter0_d_105160_1923" x="637" y="296" width="173" height="66" filterUnits="userSpaceOnUse" color-interpolation-filters="sRGB">
<feFlood flood-opacity="0" result="BackgroundImageFix"/>
<feColorMatrix in="SourceAlpha" type="matrix" values="0 0 0 0 0 0 0 0 0 0 0 0 0 0 0 0 0 0 127 0" result="hardAlpha"/>
<feOffset dx="4" dy="4"/>
<feGaussianBlur stdDeviation="2"/>
<feComposite in2="hardAlpha" operator="out"/>
<feColorMatrix type="matrix" values="0 0 0 0 0 0 0 0 0 0 0 0 0 0 0 0 0 0 0.25 0"/>
<feBlend mode="normal" in2="BackgroundImageFix" result="effect1_dropShadow_105160_1923"/>
<feBlend mode="normal" in="SourceGraphic" in2="effect1_dropShadow_105160_1923" result="shape"/>
</filter>
<clipPath id="clip0_105160_1923">
<rect width="30" height="30" fill="white" transform="translate(286 575)"/>
</clipPath>
</defs>
</svg>
