<svg width="56" height="60" viewBox="0 0 56 60" fill="none" xmlns="http://www.w3.org/2000/svg">
<path d="M0.100098 0C18.7127 0 37.2875 0 55.9001 0C55.9001 20.0135 55.9001 40.027 55.9001 60C37.3252 60 18.7127 60 0.100098 60C0.100098 39.946 0.100098 19.973 0.100098 0ZM50.0224 31.7623C48.8921 29.5746 47.3474 28.0756 45.1244 27.549C43.542 27.1438 41.9595 27.1438 40.3771 27.5084C35.253 28.6428 33.0677 35.287 36.3833 39.7029C37.5513 41.2424 39.096 42.1742 40.7162 42.9845C42.1479 43.7137 43.6173 44.4024 45.049 45.1722C46.0287 45.6988 46.4431 46.6712 46.3301 47.846C46.217 49.0209 45.4635 49.6691 44.5216 50.0338C42.4116 50.844 39.9626 50.1148 38.5309 48.2107C38.2295 47.8055 37.9281 47.3599 37.6266 46.9142C36.1949 47.8055 34.8008 48.6563 33.4068 49.5476C34.2734 51.3707 35.479 52.8292 37.1368 53.8015C39.9626 55.4625 42.9391 55.7056 45.991 54.8953C47.9879 54.3687 49.6833 53.2748 50.7383 51.2897C52.6975 47.5219 51.5672 42.8224 48.1009 40.5132C46.5561 39.5003 44.823 38.8116 43.2029 37.9203C42.4116 37.4747 41.5827 37.0695 40.9045 36.5024C39.6989 35.449 39.9249 33.3423 41.2813 32.5321C42.6 31.7218 44.4462 32.208 45.4635 33.6259C45.6896 33.9095 45.8403 34.2336 46.0663 34.5577C47.3474 33.6259 48.6661 32.6941 50.0224 31.7623ZM14.7942 50.1553C15.5478 51.8974 16.6404 53.2748 18.1852 54.1661C20.1821 55.341 22.3673 55.5435 24.5903 55.1789C26.5872 54.8548 28.245 53.8825 29.3376 51.9379C30.2419 50.3173 30.5056 48.5348 30.5056 46.6306C30.5056 40.4726 30.5056 34.3147 30.5056 28.1566C30.5056 27.9946 30.5056 27.792 30.5056 27.5895C28.7348 27.5895 27.0393 27.5895 25.2685 27.5895C25.2685 27.8325 25.2685 28.0351 25.2685 28.2782C25.2685 34.3552 25.2685 40.3916 25.2685 46.4686C25.2685 47.0358 25.2308 47.6435 25.1555 48.2107C25.0048 49.1425 24.5526 49.8312 23.6861 50.1148C22.0659 50.6415 20.7472 50.1148 19.8053 48.6158C19.5792 48.2107 19.3532 47.8055 19.0894 47.4004C17.62 48.3322 16.226 49.2235 14.7942 50.1553Z" fill="white"/>
</svg>
