<svg width="57" height="60" viewBox="0 0 57 60" fill="none" xmlns="http://www.w3.org/2000/svg">
<path d="M21.2256 54.8917C17.1823 53.7545 13.6263 51.6607 10.5216 48.7365C9.54689 49.0794 8.55411 49.4224 7.54328 49.7473C7.07396 49.8917 6.60465 49.8375 6.11728 49.657C5.25086 49.3321 4.72739 48.7004 4.34833 47.9242C3.82486 46.8953 3.15699 45.9567 2.63353 44.9278C2.16421 43.9711 1.47829 43.1408 1.08118 42.148C0.882626 41.6607 0.35916 41.3357 0.35916 40.722C-0.110154 39.9639 0.34111 39.296 0.611868 38.6282C0.68407 38.4477 0.774323 38.213 0.936778 38.1408C1.5866 37.852 1.91151 37.2022 2.45302 36.8051C2.70573 36.6245 2.97649 36.426 3.2653 36.2094C2.85014 34.1336 2.48912 32.0578 2.48912 29.9278C2.48912 27.8159 2.86819 25.7762 3.2653 23.7545C2.56133 23.1047 1.91151 22.4729 1.22559 21.8773C0.521615 21.2635 0.106453 20.5054 0.196705 19.7112C0.250857 19.278 0.377211 18.8087 0.593817 18.4477C1.26169 17.3827 1.87541 16.2635 2.52523 15.1805C3.04869 14.3141 3.49995 13.4116 4.07757 12.5632C4.38443 12.13 4.56494 11.6245 4.8718 11.1733C5.46746 10.3249 6.6588 9.90975 7.63353 10.1986C8.49995 10.4513 9.31223 10.8303 10.1967 10.9928C10.287 11.0108 10.3592 11.1372 10.4494 11.2274C13.5722 8.3213 17.1281 6.24549 21.2075 5.0361C21.37 4.54874 21.4061 4.02527 21.6046 3.51986C21.7491 3.14079 21.713 2.67148 21.7852 2.25632C21.9837 1.17329 22.6516 0.541516 23.6083 0.216606C23.9512 0.108303 24.2942 0 24.7093 0C27.2364 0.0361011 29.7635 0.0361011 32.2906 0C33.0126 0 33.6263 0.288809 34.2039 0.613718C34.7274 0.884477 35.0162 1.46209 35.1606 2.00361C35.4133 2.99639 35.5577 4.00722 35.7563 5.05415C39.8176 6.20939 43.3736 8.2852 46.4783 11.2094C47.453 10.8664 48.4458 10.5235 49.4566 10.1986C49.926 10.0542 50.3953 10.1083 50.8826 10.2888C51.7491 10.6137 52.2725 11.2455 52.6516 12.0217C53.175 13.0505 53.8429 13.9892 54.3664 15.0181C54.8357 15.9747 55.5216 16.8051 55.9187 17.7978C56.1173 18.2852 56.6408 18.6101 56.6408 19.2238C57.1101 19.982 56.6588 20.6498 56.388 21.3177C56.3158 21.4982 56.2256 21.7329 56.0631 21.8051C55.4133 22.0939 55.0884 22.7437 54.5469 23.1408C54.2942 23.3213 54.0234 23.5199 53.7346 23.7365C54.1498 25.8123 54.5108 27.8881 54.5108 30.018C54.5108 32.13 54.1859 34.1697 53.7346 36.1913C54.4386 36.8412 55.0884 37.4729 55.7743 38.0686C56.4783 38.6823 56.8935 39.4404 56.8032 40.2347C56.7491 40.6679 56.6408 41.1372 56.4061 41.4982C55.7563 42.5451 55.1426 43.6282 54.5108 44.6931C53.7166 46.0108 53.0667 47.4368 52.1462 48.6823C51.9837 49.3682 51.3339 49.4224 50.8646 49.6751C50.3592 49.9458 49.8537 49.8736 49.2942 49.7112C48.4639 49.4765 47.6696 49.0614 46.8032 48.9531C46.713 48.935 46.6408 48.8087 46.5505 48.7184C43.4278 51.6607 39.8899 53.7545 35.7563 54.9278C35.5577 55.9025 35.3772 56.9134 35.1606 57.9061C34.944 58.8809 34.2942 59.4946 33.3736 59.7834C33.0306 59.8917 32.6696 60 32.2725 60C29.7454 59.9639 27.2184 59.9639 24.6913 60C23.9693 60 23.3556 59.7112 22.7779 59.3863C22.2545 59.1155 21.9476 58.5379 21.8393 57.9964C21.6407 56.9314 21.4422 55.9386 21.2256 54.8917ZM22.3989 38.9892C22.7599 38.7906 23.175 38.6643 23.1931 38.231C23.2292 37.5812 23.3195 36.9134 23.175 36.2996C22.9223 35.2527 22.4711 34.2419 22.2003 33.1949C22.0198 32.5271 21.6227 31.8953 21.6407 31.1733C21.0631 29.7473 20.7021 28.2491 20.2148 26.8051C19.8176 25.6137 19.5288 24.3863 19.0956 23.213C18.861 22.5632 18.8068 21.8412 18.3736 21.2635C18.3375 21.2094 18.3195 21.1733 18.3195 21.1733C17.8321 20.8484 17.3267 20.9567 16.8935 20.9567C16.6408 21.1913 16.4241 21.3899 16.2256 21.5704C16.2075 22.148 15.7924 22.5993 15.8646 23.1588C15.2328 24.5668 14.962 26.083 14.4386 27.5271C14.1678 28.2671 14.0054 29.0253 13.7888 29.7834C13.5902 30.5415 13.157 31.2274 13.157 32.0397C12.4711 33.574 12.1281 35.2166 11.6227 36.8231C11.4963 37.2202 11.4241 37.5993 11.6769 37.9783C11.7491 38.0866 11.713 38.2491 11.713 38.231C12.0018 38.5379 12.2184 38.7545 12.3989 38.9711C12.7418 38.9711 13.1028 38.9711 13.4819 38.9711C13.7346 38.6462 13.9873 38.3394 14.222 38.0325C14.1678 37.0036 14.3844 36.3177 14.8537 35.2166C16.6227 35.2166 18.3917 35.2166 20.1606 35.2166C20.305 35.7942 20.3772 36.3538 20.5758 36.8773C20.666 37.0939 20.7563 37.3105 20.7202 37.5271C20.666 38.1949 20.8826 38.7184 21.6407 38.9711C21.8213 38.9892 22.092 38.9892 22.3989 38.9892ZM26.6227 38.9892C27.1101 38.9531 27.6696 39.0975 28.0667 38.7004C28.2111 38.5199 28.3375 38.3394 28.518 38.0866C28.518 36.2816 28.518 34.3863 28.518 32.491C29.8357 32.491 31.1353 32.4368 32.4169 32.509C33.1931 32.5451 33.8249 32.3105 34.4386 31.9314C34.7274 31.7509 34.9801 31.4801 35.2328 31.2274C35.9007 30.5776 36.2256 29.7834 36.2436 28.8448C36.2436 27.3646 36.2436 25.9025 36.2436 24.4224C36.2436 24.2058 36.1895 23.9711 36.1353 23.7545C35.9368 22.9783 35.5216 22.4007 34.962 21.8953C34.3122 21.2996 33.5541 20.9386 32.6516 20.9386C30.6299 20.9386 28.6263 20.9386 26.5866 20.9386C26.388 21.1552 26.1895 21.3718 25.9548 21.5884C25.9548 27.148 25.9548 32.7437 25.9548 38.3574C26.1895 38.556 26.4061 38.7726 26.6227 38.9892ZM39.6191 38.9892C40.8646 38.9892 42.1281 38.9892 43.3736 38.9892C43.5902 38.7726 43.8068 38.556 44.0234 38.3574C44.0234 38.0144 44.0234 37.6895 44.0234 37.3466C44.0234 37.3105 44.0234 37.2924 44.0234 37.2744C43.7527 36.769 43.3375 36.4621 42.796 36.4079C42.796 32.0939 42.796 27.7978 42.796 23.5921C43.1931 23.3935 43.5361 23.213 43.9332 22.9964C43.9873 22.5271 44.0234 22.0397 44.0595 21.6968C43.7707 21.3718 43.5722 21.1372 43.4097 20.9567C42.1101 20.9567 40.8465 20.9567 39.7274 20.9567C39.4205 21.2274 39.2039 21.426 38.9332 21.6787C38.9873 22.1119 39.0595 22.5993 39.1137 23.0144C39.5469 23.231 39.8898 23.4116 40.1967 23.574C40.1967 27.87 40.1967 32.1661 40.1967 36.426C40.0162 36.4621 39.8176 36.426 39.7454 36.5162C39.4927 36.769 39.0595 36.8412 38.9693 37.2563C38.9693 37.6173 38.9693 37.9783 38.9693 38.3394C39.1859 38.556 39.4025 38.7726 39.6191 38.9892Z" fill="white"/>
<path d="M19.204 32.4546C18.139 32.4907 17.0198 32.5088 15.9007 32.5449C15.8646 32.5449 15.8105 32.6171 15.7021 32.7073C15.7202 31.5882 16.352 30.6857 16.4242 29.6568C16.9657 28.7543 17.0198 27.6893 17.3808 26.6785C17.4892 26.7868 17.6516 26.8951 17.6516 26.9853C17.6697 27.7615 18.1209 28.4294 18.2653 29.1694C18.3736 29.6749 18.6624 30.1622 18.7346 30.6676C18.8068 31.3175 19.2401 31.8048 19.204 32.4546Z" fill="white"/>
<path d="M33.7347 28.9534C33.6083 29.1519 33.5 29.3505 33.3556 29.531C33.1029 29.8198 32.778 29.9823 32.3628 29.9642C31.0993 29.9462 29.8358 29.9642 28.5361 29.9642C28.5361 27.8162 28.5361 25.6682 28.5361 23.466C29.8538 23.466 31.2076 23.448 32.5434 23.466C33.1751 23.4841 33.7166 24.1339 33.7347 24.8198C33.7347 25.957 33.7347 27.0942 33.7347 28.2314C33.7347 28.4841 33.7347 28.7187 33.7347 28.9534Z" fill="white"/>
</svg>
