<svg width="61" height="62" viewBox="0 0 61 62" fill="none" xmlns="http://www.w3.org/2000/svg">
<path d="M60.4454 5.75193C60.0084 3.45789 58.2333 1.60082 55.9665 1.10924C55.8573 1.08193 55.7481 1.08193 55.6115 1.05462C55.5842 1.05462 55.5569 0.999997 55.5296 0.972687H5.4431C5.41579 0.999997 5.38848 1.05462 5.33386 1.05462C3.06714 1.43696 1.15544 3.23941 0.63655 5.53345C0.60924 5.61538 0.55462 5.72462 0.5 5.83386V56.0569C0.52731 56.1115 0.58193 56.1388 0.58193 56.1934C1.12813 58.706 2.65749 60.2626 5.14269 60.8908C5.22462 60.9181 5.27924 60.9727 5.33386 61.0273H55.6115C55.6661 61 55.6934 60.9454 55.7481 60.9181C58.2333 60.3446 59.7626 58.8425 60.3908 56.3573C60.4181 56.2754 60.3908 56.1661 60.4181 56.0842C60.4181 56.0569 60.4727 56.0296 60.5 56.0023V5.91579C60.5 5.86117 60.4454 5.83386 60.4454 5.75193ZM35.3202 34.2635H35.0198C32.7531 34.2635 30.459 34.2635 28.1923 34.2635C28.0831 34.2635 27.9738 34.2635 27.8646 34.2635C27.8646 34.2908 27.8373 34.2908 27.8373 34.3182C27.8373 34.4274 27.8373 34.5366 27.8373 34.6459V55.7019H21.8564V34.2908H14.3462V29.5116H35.2929V34.2635H35.3202ZM55.475 48.5467C55.4203 49.4752 55.2838 50.3764 54.9015 51.2503C54.7922 51.5234 54.7103 51.7692 54.5737 52.0423C54.0822 53.0801 53.2629 53.8175 52.307 54.4183C51.2146 55.101 50.013 55.4834 48.7567 55.7292C47.3639 56.0023 45.9711 56.0842 44.551 56.0296C43.8682 56.0023 43.1855 56.0023 42.5027 55.9203C40.8914 55.7292 39.3075 55.3741 37.8327 54.6641C37.7508 54.6368 37.6416 54.5002 37.6416 54.4183C37.6416 52.6431 37.6416 50.868 37.6416 49.0928C37.6416 49.0655 37.6416 49.0382 37.6416 48.9836C38.0785 49.284 38.5155 49.5844 38.9524 49.8302C40.0175 50.4583 41.1919 50.8953 42.3935 51.1684C43.4313 51.4142 44.4691 51.4415 45.5068 51.3869C46.2988 51.3596 47.0908 51.1684 47.8009 50.8134C48.429 50.4857 48.9479 50.0487 49.0844 49.3113C49.221 48.6559 49.1664 48.0005 48.784 47.4269C48.2378 46.6076 47.4731 46.0888 46.6265 45.6518C45.6707 45.1875 44.7148 44.7779 43.7317 44.3409C42.2843 43.6855 40.8641 42.9754 39.6898 41.883C38.734 40.9818 38.0239 39.9167 37.6962 38.6331C37.505 37.8685 37.4504 37.1038 37.4777 36.3391C37.505 34.4547 38.1878 32.8434 39.5259 31.5052C40.6183 30.4128 41.9565 29.7574 43.4313 29.3751C44.4417 29.1293 45.4522 28.9381 46.49 28.9108C47.2274 28.9108 47.9647 28.8289 48.6748 28.8562C49.7945 28.8835 50.8869 28.9381 51.9793 29.2112C52.6894 29.4024 53.4267 29.5935 54.1368 29.7574C54.2733 29.7847 54.3279 29.8666 54.3279 30.0305C54.3279 31.7237 54.3279 33.4442 54.3279 35.1375C54.3279 35.1921 54.3279 35.2467 54.3006 35.3286C54.0822 35.1921 53.891 35.0828 53.6998 34.9736C52.8259 34.482 51.8974 34.1543 50.9415 33.9085C49.8764 33.6627 48.8113 33.4989 47.7189 33.5262C46.9816 33.5535 46.2169 33.6627 45.5341 33.9085C44.6875 34.2089 44.0048 34.7005 43.7044 35.6017C43.4586 36.3118 43.6498 36.9126 44.0867 37.4861C44.6329 38.1962 45.3703 38.6878 46.1623 39.0701C47.2274 39.589 48.3198 40.0259 49.3575 40.5175C50.5592 41.091 51.7608 41.6645 52.7713 42.5112C53.6452 43.2485 54.4372 44.0678 54.8741 45.1602C55.1199 45.8157 55.3384 46.4984 55.3384 47.2358C55.4477 47.6727 55.5023 48.1097 55.475 48.5467Z" fill="white"/>
</svg>
